# MagicaVoxel @ Ephtracy

# group
o 

# material
mtllib light_01.mtl
usemtl palette

# normals
vn -1 0 0
vn 1 0 0
vn 0 0 1
vn 0 0 -1
vn 0 -1 0
vn 0 1 0

# texcoords
vt 0.00195313 0.5
vt 0.00585938 0.5
vt 0.00976563 0.5
vt 0.0136719 0.5

# verts
v -1 0.8 1
v -1 0.8 -0.8
v -1 1 1
v -1 1 -0.8
v -1 1.1 1
v -1 1.1 0.8
v -1 1.1 0.7
v -1 1.1 0.4
v -1 1.1 -0.2
v -1 1.1 -0.5
v -1 1.1 -0.6
v -1 1.1 -0.8
v -1 1.2 1
v -1 1.2 0.8
v -1 1.2 0.7
v -1 1.2 0.4
v -1 1.2 -0.2
v -1 1.2 -0.5
v -1 1.2 -0.6
v -1 1.2 -0.8
v -1 1.3 1
v -1 1.3 -0.8
v -1 1.4 1
v -1 1.4 -0.8
v -0.9 0.8 1.1
v -0.9 0.8 1
v -0.9 0.8 -0.8
v -0.9 0.8 -0.9
v -0.9 1 1.1
v -0.9 1 1
v -0.9 1 -0.8
v -0.9 1 -0.9
v -0.9 1.1 1.1
v -0.9 1.1 1
v -0.9 1.1 -0.8
v -0.9 1.1 -0.9
v -0.9 1.2 1.1
v -0.9 1.2 1
v -0.9 1.2 -0.8
v -0.9 1.2 -0.9
v -0.9 1.3 1.1
v -0.9 1.3 1
v -0.9 1.3 -0.8
v -0.9 1.3 -0.9
v -0.9 1.4 1.1
v -0.9 1.4 1
v -0.9 1.4 -0.8
v -0.9 1.4 -0.9
v -0.7 0.7 0.8
v -0.7 0.7 -0.6
v -0.7 1 0.8
v -0.7 1 -0.6
v 0.8 0.8 0.9
v 0.8 0.8 -0.7
v 0.8 1 0.9
v 0.8 1 -0.7
v -0.8 0.8 0.9
v -0.8 0.8 -0.7
v -0.8 1 0.9
v -0.8 1 -0.7
v 0.7 0.7 0.8
v 0.7 0.7 -0.6
v 0.7 1 0.8
v 0.7 1 -0.6
v 0.9 0.8 1.1
v 0.9 0.8 1
v 0.9 0.8 -0.8
v 0.9 0.8 -0.9
v 0.9 1 1.1
v 0.9 1 1
v 0.9 1 -0.8
v 0.9 1 -0.9
v 0.9 1.1 1.1
v 0.9 1.1 1
v 0.9 1.1 -0.8
v 0.9 1.1 -0.9
v 0.9 1.2 1.1
v 0.9 1.2 1
v 0.9 1.2 -0.8
v 0.9 1.2 -0.9
v 0.9 1.3 1.1
v 0.9 1.3 1
v 0.9 1.3 -0.8
v 0.9 1.3 -0.9
v 0.9 1.4 1.1
v 0.9 1.4 1
v 0.9 1.4 -0.8
v 0.9 1.4 -0.9
v 1 0.8 1
v 1 0.8 -0.8
v 1 1 1
v 1 1 -0.8
v 1 1.1 1
v 1 1.1 0.8
v 1 1.1 0.7
v 1 1.1 0.4
v 1 1.1 -0.2
v 1 1.1 -0.5
v 1 1.1 -0.6
v 1 1.1 -0.8
v 1 1.2 1
v 1 1.2 0.8
v 1 1.2 0.7
v 1 1.2 0.4
v 1 1.2 -0.2
v 1 1.2 -0.5
v 1 1.2 -0.6
v 1 1.2 -0.8
v 1 1.3 1
v 1 1.3 -0.8
v 1 1.4 1
v 1 1.4 -0.8
v -0.9 0.8 1.1
v -0.9 1 1.1
v -0.9 1.1 1.1
v -0.9 1.2 1.1
v -0.9 1.3 1.1
v -0.9 1.4 1.1
v -0.7 1.1 1.1
v -0.7 1.2 1.1
v -0.6 1.1 1.1
v -0.6 1.2 1.1
v -0.3 1.1 1.1
v -0.3 1.2 1.1
v 0.3 1.1 1.1
v 0.3 1.2 1.1
v 0.6 1.1 1.1
v 0.6 1.2 1.1
v 0.7 1.1 1.1
v 0.7 1.2 1.1
v 0.9 0.8 1.1
v 0.9 1 1.1
v 0.9 1.1 1.1
v 0.9 1.2 1.1
v 0.9 1.3 1.1
v 0.9 1.4 1.1
v -1 0.8 1
v -1 1 1
v -1 1.1 1
v -1 1.2 1
v -1 1.3 1
v -1 1.4 1
v -0.9 0.8 1
v -0.9 1 1
v -0.9 1.1 1
v -0.9 1.2 1
v -0.9 1.3 1
v -0.9 1.4 1
v 0.9 0.8 1
v 0.9 1 1
v 0.9 1.1 1
v 0.9 1.2 1
v 0.9 1.3 1
v 0.9 1.4 1
v 1 0.8 1
v 1 1 1
v 1 1.1 1
v 1 1.2 1
v 1 1.3 1
v 1 1.4 1
v -0.7 0.7 0.8
v -0.7 1 0.8
v 0.7 0.7 0.8
v 0.7 1 0.8
v -0.8 0.8 -0.7
v -0.8 1 -0.7
v 0.8 0.8 -0.7
v 0.8 1 -0.7
v -0.8 0.8 0.9
v -0.8 1 0.9
v 0.8 0.8 0.9
v 0.8 1 0.9
v -0.7 0.7 -0.6
v -0.7 1 -0.6
v 0.7 0.7 -0.6
v 0.7 1 -0.6
v -1 0.8 -0.8
v -1 1 -0.8
v -1 1.1 -0.8
v -1 1.2 -0.8
v -1 1.3 -0.8
v -1 1.4 -0.8
v -0.9 0.8 -0.8
v -0.9 1 -0.8
v -0.9 1.1 -0.8
v -0.9 1.2 -0.8
v -0.9 1.3 -0.8
v -0.9 1.4 -0.8
v 0.9 0.8 -0.8
v 0.9 1 -0.8
v 0.9 1.1 -0.8
v 0.9 1.2 -0.8
v 0.9 1.3 -0.8
v 0.9 1.4 -0.8
v 1 0.8 -0.8
v 1 1 -0.8
v 1 1.1 -0.8
v 1 1.2 -0.8
v 1 1.3 -0.8
v 1 1.4 -0.8
v -0.9 0.8 -0.9
v -0.9 1 -0.9
v -0.9 1.1 -0.9
v -0.9 1.2 -0.9
v -0.9 1.3 -0.9
v -0.9 1.4 -0.9
v -0.7 1.1 -0.9
v -0.7 1.2 -0.9
v -0.6 1.1 -0.9
v -0.6 1.2 -0.9
v -0.3 1.1 -0.9
v -0.3 1.2 -0.9
v 0.3 1.1 -0.9
v 0.3 1.2 -0.9
v 0.6 1.1 -0.9
v 0.6 1.2 -0.9
v 0.7 1.1 -0.9
v 0.7 1.2 -0.9
v 0.9 0.8 -0.9
v 0.9 1 -0.9
v 0.9 1.1 -0.9
v 0.9 1.2 -0.9
v 0.9 1.3 -0.9
v 0.9 1.4 -0.9
v -0.7 0.7 0.8
v 0.7 0.7 0.8
v -0.7 0.7 -0.6
v 0.7 0.7 -0.6
v -0.9 0.8 1.1
v 0.9 0.8 1.1
v -1 0.8 1
v -0.9 0.8 1
v 0.9 0.8 1
v 1 0.8 1
v -0.8 0.8 0.9
v 0.8 0.8 0.9
v -0.8 0.8 -0.7
v 0.8 0.8 -0.7
v -1 0.8 -0.8
v -0.9 0.8 -0.8
v 0.9 0.8 -0.8
v 1 0.8 -0.8
v -0.9 0.8 -0.9
v 0.9 0.8 -0.9
v -0.8 1 0.9
v 0.8 1 0.9
v -0.7 1 0.8
v 0.7 1 0.8
v -0.7 1 -0.6
v 0.7 1 -0.6
v -0.8 1 -0.7
v 0.8 1 -0.7
v -0.9 1.4 1.1
v 0.9 1.4 1.1
v -1 1.4 1
v -0.9 1.4 1
v -0.6 1.4 1
v -0.2 1.4 1
v -0.0999999 1.4 1
v 0.1 1.4 1
v 0.2 1.4 1
v 0.6 1.4 1
v 0.9 1.4 1
v 1 1.4 1
v -0.8 1.4 0.9
v -0.6 1.4 0.9
v 0.6 1.4 0.9
v 0.8 1.4 0.9
v -0.9 1.4 0.7
v -0.8 1.4 0.7
v 0.8 1.4 0.7
v 0.9 1.4 0.7
v -0.9 1.4 0.3
v -0.2 1.4 0.3
v -0.0999999 1.4 0.3
v 0.1 1.4 0.3
v 0.2 1.4 0.3
v 0.9 1.4 0.3
v -0.9 1.4 0.2
v -0.2 1.4 0.2
v -0.0999999 1.4 0.2
v 0.1 1.4 0.2
v 0.2 1.4 0.2
v 0.9 1.4 0.2
v -0.9 1.4 0
v -0.2 1.4 0
v -0.0999999 1.4 0
v 0.1 1.4 0
v 0.2 1.4 0
v 0.9 1.4 0
v -0.9 1.4 -0.1
v -0.2 1.4 -0.1
v -0.0999999 1.4 -0.1
v 0.1 1.4 -0.1
v 0.2 1.4 -0.1
v 0.9 1.4 -0.1
v -0.9 1.4 -0.5
v -0.8 1.4 -0.5
v 0.8 1.4 -0.5
v 0.9 1.4 -0.5
v -0.8 1.4 -0.7
v -0.6 1.4 -0.7
v 0.6 1.4 -0.7
v 0.8 1.4 -0.7
v -1 1.4 -0.8
v -0.9 1.4 -0.8
v -0.6 1.4 -0.8
v -0.2 1.4 -0.8
v -0.0999999 1.4 -0.8
v 0.1 1.4 -0.8
v 0.2 1.4 -0.8
v 0.6 1.4 -0.8
v 0.9 1.4 -0.8
v 1 1.4 -0.8
v -0.9 1.4 -0.9
v 0.9 1.4 -0.9

# faces
f 3/2/1 2/2/1 1/2/1
f 4/2/1 2/2/1 3/2/1
f 5/1/1 4/1/1 3/1/1
f 6/1/1 4/1/1 5/1/1
f 7/1/1 4/1/1 6/1/1
f 8/1/1 4/1/1 7/1/1
f 9/1/1 4/1/1 8/1/1
f 10/1/1 4/1/1 9/1/1
f 11/1/1 4/1/1 10/1/1
f 12/1/1 4/1/1 11/1/1
f 13/2/1 6/2/1 5/2/1
f 14/1/1 7/1/1 6/1/1
f 14/2/1 6/2/1 13/2/1
f 15/2/1 8/2/1 7/2/1
f 15/1/1 7/1/1 14/1/1
f 16/1/1 9/1/1 8/1/1
f 16/2/1 8/2/1 15/2/1
f 17/2/1 10/2/1 9/2/1
f 17/1/1 9/1/1 16/1/1
f 18/1/1 11/1/1 10/1/1
f 18/2/1 10/2/1 17/2/1
f 19/2/1 12/2/1 11/2/1
f 19/1/1 11/1/1 18/1/1
f 20/2/1 12/2/1 19/2/1
f 21/1/1 14/1/1 13/1/1
f 21/1/1 15/1/1 14/1/1
f 21/1/1 20/1/1 19/1/1
f 21/1/1 19/1/1 18/1/1
f 21/1/1 18/1/1 17/1/1
f 21/1/1 17/1/1 16/1/1
f 21/1/1 16/1/1 15/1/1
f 22/1/1 20/1/1 21/1/1
f 23/2/1 22/2/1 21/2/1
f 24/2/1 22/2/1 23/2/1
f 29/2/1 26/2/1 25/2/1
f 30/2/1 26/2/1 29/2/1
f 31/2/1 28/2/1 27/2/1
f 32/2/1 28/2/1 31/2/1
f 33/1/1 30/1/1 29/1/1
f 34/1/1 30/1/1 33/1/1
f 35/1/1 32/1/1 31/1/1
f 36/1/1 32/1/1 35/1/1
f 37/2/1 34/2/1 33/2/1
f 38/2/1 34/2/1 37/2/1
f 39/2/1 36/2/1 35/2/1
f 40/2/1 36/2/1 39/2/1
f 41/1/1 38/1/1 37/1/1
f 42/1/1 38/1/1 41/1/1
f 43/1/1 40/1/1 39/1/1
f 44/1/1 40/1/1 43/1/1
f 45/2/1 42/2/1 41/2/1
f 46/2/1 42/2/1 45/2/1
f 47/2/1 44/2/1 43/2/1
f 48/2/1 44/2/1 47/2/1
f 51/4/1 50/4/1 49/4/1
f 52/4/1 50/4/1 51/4/1
f 55/1/1 54/1/1 53/1/1
f 56/1/1 54/1/1 55/1/1
f 57/1/2 58/1/2 59/1/2
f 59/1/2 58/1/2 60/1/2
f 61/4/2 62/4/2 63/4/2
f 63/4/2 62/4/2 64/4/2
f 65/2/2 66/2/2 69/2/2
f 69/2/2 66/2/2 70/2/2
f 67/2/2 68/2/2 71/2/2
f 71/2/2 68/2/2 72/2/2
f 69/1/2 70/1/2 73/1/2
f 73/1/2 70/1/2 74/1/2
f 71/1/2 72/1/2 75/1/2
f 75/1/2 72/1/2 76/1/2
f 73/2/2 74/2/2 77/2/2
f 77/2/2 74/2/2 78/2/2
f 75/2/2 76/2/2 79/2/2
f 79/2/2 76/2/2 80/2/2
f 77/1/2 78/1/2 81/1/2
f 81/1/2 78/1/2 82/1/2
f 79/1/2 80/1/2 83/1/2
f 83/1/2 80/1/2 84/1/2
f 81/2/2 82/2/2 85/2/2
f 85/2/2 82/2/2 86/2/2
f 83/2/2 84/2/2 87/2/2
f 87/2/2 84/2/2 88/2/2
f 89/2/2 90/2/2 91/2/2
f 91/2/2 90/2/2 92/2/2
f 91/1/2 92/1/2 93/1/2
f 93/1/2 92/1/2 94/1/2
f 94/1/2 92/1/2 95/1/2
f 95/1/2 92/1/2 96/1/2
f 96/1/2 92/1/2 97/1/2
f 97/1/2 92/1/2 98/1/2
f 98/1/2 92/1/2 99/1/2
f 99/1/2 92/1/2 100/1/2
f 93/2/2 94/2/2 101/2/2
f 94/1/2 95/1/2 102/1/2
f 101/2/2 94/2/2 102/2/2
f 95/2/2 96/2/2 103/2/2
f 102/1/2 95/1/2 103/1/2
f 96/1/2 97/1/2 104/1/2
f 103/2/2 96/2/2 104/2/2
f 97/2/2 98/2/2 105/2/2
f 104/1/2 97/1/2 105/1/2
f 98/1/2 99/1/2 106/1/2
f 105/2/2 98/2/2 106/2/2
f 99/2/2 100/2/2 107/2/2
f 106/1/2 99/1/2 107/1/2
f 107/2/2 100/2/2 108/2/2
f 101/1/2 102/1/2 109/1/2
f 102/1/2 103/1/2 109/1/2
f 107/1/2 108/1/2 109/1/2
f 106/1/2 107/1/2 109/1/2
f 105/1/2 106/1/2 109/1/2
f 104/1/2 105/1/2 109/1/2
f 103/1/2 104/1/2 109/1/2
f 109/1/2 108/1/2 110/1/2
f 109/2/2 110/2/2 111/2/2
f 111/2/2 110/2/2 112/2/2
f 119/1/3 115/1/3 114/1/3
f 119/2/3 116/2/3 115/2/3
f 120/1/3 117/1/3 116/1/3
f 120/2/3 116/2/3 119/2/3
f 121/1/3 119/1/3 114/1/3
f 121/1/3 120/1/3 119/1/3
f 122/1/3 117/1/3 120/1/3
f 122/1/3 120/1/3 121/1/3
f 123/1/3 121/1/3 114/1/3
f 123/2/3 122/2/3 121/2/3
f 124/1/3 117/1/3 122/1/3
f 124/2/3 122/2/3 123/2/3
f 125/1/3 123/1/3 114/1/3
f 125/1/3 124/1/3 123/1/3
f 126/1/3 117/1/3 124/1/3
f 126/1/3 124/1/3 125/1/3
f 127/1/3 125/1/3 114/1/3
f 127/2/3 126/2/3 125/2/3
f 128/1/3 117/1/3 126/1/3
f 128/2/3 126/2/3 127/2/3
f 129/1/3 127/1/3 114/1/3
f 129/1/3 128/1/3 127/1/3
f 130/1/3 117/1/3 128/1/3
f 130/1/3 128/1/3 129/1/3
f 131/2/3 114/2/3 113/2/3
f 132/1/3 129/1/3 114/1/3
f 132/2/3 114/2/3 131/2/3
f 133/2/3 130/2/3 129/2/3
f 133/1/3 129/1/3 132/1/3
f 134/1/3 117/1/3 130/1/3
f 134/2/3 130/2/3 133/2/3
f 135/2/3 118/2/3 117/2/3
f 135/1/3 117/1/3 134/1/3
f 136/2/3 118/2/3 135/2/3
f 143/2/3 138/2/3 137/2/3
f 144/1/3 139/1/3 138/1/3
f 144/2/3 138/2/3 143/2/3
f 145/2/3 140/2/3 139/2/3
f 145/1/3 139/1/3 144/1/3
f 146/1/3 141/1/3 140/1/3
f 146/2/3 140/2/3 145/2/3
f 147/2/3 142/2/3 141/2/3
f 147/1/3 141/1/3 146/1/3
f 148/2/3 142/2/3 147/2/3
f 155/2/3 150/2/3 149/2/3
f 156/1/3 151/1/3 150/1/3
f 156/2/3 150/2/3 155/2/3
f 157/2/3 152/2/3 151/2/3
f 157/1/3 151/1/3 156/1/3
f 158/1/3 153/1/3 152/1/3
f 158/2/3 152/2/3 157/2/3
f 159/2/3 154/2/3 153/2/3
f 159/1/3 153/1/3 158/1/3
f 160/2/3 154/2/3 159/2/3
f 163/4/3 162/4/3 161/4/3
f 164/4/3 162/4/3 163/4/3
f 167/1/3 166/1/3 165/1/3
f 168/1/3 166/1/3 167/1/3
f 169/1/4 170/1/4 171/1/4
f 171/1/4 170/1/4 172/1/4
f 173/4/4 174/4/4 175/4/4
f 175/4/4 174/4/4 176/4/4
f 177/2/4 178/2/4 183/2/4
f 178/1/4 179/1/4 184/1/4
f 183/2/4 178/2/4 184/2/4
f 179/2/4 180/2/4 185/2/4
f 184/1/4 179/1/4 185/1/4
f 180/1/4 181/1/4 186/1/4
f 185/2/4 180/2/4 186/2/4
f 181/2/4 182/2/4 187/2/4
f 186/1/4 181/1/4 187/1/4
f 187/2/4 182/2/4 188/2/4
f 189/2/4 190/2/4 195/2/4
f 190/1/4 191/1/4 196/1/4
f 195/2/4 190/2/4 196/2/4
f 191/2/4 192/2/4 197/2/4
f 196/1/4 191/1/4 197/1/4
f 192/1/4 193/1/4 198/1/4
f 197/2/4 192/2/4 198/2/4
f 193/2/4 194/2/4 199/2/4
f 198/1/4 193/1/4 199/1/4
f 199/2/4 194/2/4 200/2/4
f 202/1/4 203/1/4 207/1/4
f 203/2/4 204/2/4 207/2/4
f 204/1/4 205/1/4 208/1/4
f 207/2/4 204/2/4 208/2/4
f 202/1/4 207/1/4 209/1/4
f 207/1/4 208/1/4 209/1/4
f 208/1/4 205/1/4 210/1/4
f 209/1/4 208/1/4 210/1/4
f 202/1/4 209/1/4 211/1/4
f 209/2/4 210/2/4 211/2/4
f 210/1/4 205/1/4 212/1/4
f 211/2/4 210/2/4 212/2/4
f 202/1/4 211/1/4 213/1/4
f 211/1/4 212/1/4 213/1/4
f 212/1/4 205/1/4 214/1/4
f 213/1/4 212/1/4 214/1/4
f 202/1/4 213/1/4 215/1/4
f 213/2/4 214/2/4 215/2/4
f 214/1/4 205/1/4 216/1/4
f 215/2/4 214/2/4 216/2/4
f 202/1/4 215/1/4 217/1/4
f 215/1/4 216/1/4 217/1/4
f 216/1/4 205/1/4 218/1/4
f 217/1/4 216/1/4 218/1/4
f 201/2/4 202/2/4 219/2/4
f 202/1/4 217/1/4 220/1/4
f 219/2/4 202/2/4 220/2/4
f 217/2/4 218/2/4 221/2/4
f 220/1/4 217/1/4 221/1/4
f 218/1/4 205/1/4 222/1/4
f 221/2/4 218/2/4 222/2/4
f 205/2/4 206/2/4 223/2/4
f 222/1/4 205/1/4 223/1/4
f 223/2/4 206/2/4 224/2/4
f 227/4/5 226/4/5 225/4/5
f 228/4/5 226/4/5 227/4/5
f 232/2/5 230/2/5 229/2/5
f 233/2/5 230/2/5 232/2/5
f 235/1/5 233/1/5 232/1/5
f 236/1/5 233/1/5 235/1/5
f 237/1/5 235/1/5 232/1/5
f 238/1/5 233/1/5 236/1/5
f 239/2/5 232/2/5 231/2/5
f 240/1/5 238/1/5 237/1/5
f 240/2/5 232/2/5 239/2/5
f 240/1/5 237/1/5 232/1/5
f 241/2/5 234/2/5 233/2/5
f 241/1/5 238/1/5 240/1/5
f 241/1/5 233/1/5 238/1/5
f 242/2/5 234/2/5 241/2/5
f 243/2/5 241/2/5 240/2/5
f 244/2/5 241/2/5 243/2/5
f 247/3/5 246/3/5 245/3/5
f 248/3/5 246/3/5 247/3/5
f 249/3/5 247/3/5 245/3/5
f 250/3/5 246/3/5 248/3/5
f 251/3/5 249/3/5 245/3/5
f 251/3/5 250/3/5 249/3/5
f 252/3/5 246/3/5 250/3/5
f 252/3/5 250/3/5 251/3/5
f 253/2/6 254/2/6 256/2/6
f 256/2/6 254/2/6 257/2/6
f 257/2/6 254/2/6 258/2/6
f 258/2/6 254/2/6 259/2/6
f 259/2/6 254/2/6 260/2/6
f 260/2/6 254/2/6 261/2/6
f 261/2/6 254/2/6 262/2/6
f 262/2/6 254/2/6 263/2/6
f 255/2/6 256/2/6 265/2/6
f 256/2/6 257/2/6 265/2/6
f 257/1/6 258/1/6 266/1/6
f 265/2/6 257/2/6 266/2/6
f 263/2/6 264/2/6 267/2/6
f 262/2/6 263/2/6 267/2/6
f 261/1/6 262/1/6 267/1/6
f 267/2/6 264/2/6 268/2/6
f 255/2/6 265/2/6 269/2/6
f 265/1/6 266/1/6 270/1/6
f 269/2/6 265/2/6 270/2/6
f 268/2/6 264/2/6 271/2/6
f 267/1/6 268/1/6 271/1/6
f 271/2/6 264/2/6 272/2/6
f 255/2/6 269/2/6 273/2/6
f 269/1/6 270/1/6 273/1/6
f 266/1/6 258/1/6 274/1/6
f 273/1/6 270/1/6 274/1/6
f 270/1/6 266/1/6 274/1/6
f 258/2/6 259/2/6 274/2/6
f 259/1/6 260/1/6 275/1/6
f 274/2/6 259/2/6 275/2/6
f 260/2/6 261/2/6 276/2/6
f 275/1/6 260/1/6 276/1/6
f 267/1/6 271/1/6 277/1/6
f 276/2/6 261/2/6 277/2/6
f 271/1/6 272/1/6 277/1/6
f 261/1/6 267/1/6 277/1/6
f 272/2/6 264/2/6 278/2/6
f 277/1/6 272/1/6 278/1/6
f 255/2/6 273/2/6 279/2/6
f 276/2/6 277/2/6 279/2/6
f 277/2/6 278/2/6 279/2/6
f 273/2/6 274/2/6 279/2/6
f 274/2/6 275/2/6 279/2/6
f 275/2/6 276/2/6 279/2/6
f 279/2/6 278/2/6 280/2/6
f 280/2/6 278/2/6 281/2/6
f 281/2/6 278/2/6 282/2/6
f 282/2/6 278/2/6 283/2/6
f 278/2/6 264/2/6 284/2/6
f 283/2/6 278/2/6 284/2/6
f 255/2/6 279/2/6 285/2/6
f 279/1/6 280/1/6 285/1/6
f 280/2/6 281/2/6 286/2/6
f 285/1/6 280/1/6 286/1/6
f 281/1/6 282/1/6 287/1/6
f 286/2/6 281/2/6 287/2/6
f 282/2/6 283/2/6 288/2/6
f 287/1/6 282/1/6 288/1/6
f 283/1/6 284/1/6 289/1/6
f 288/2/6 283/2/6 289/2/6
f 284/2/6 264/2/6 290/2/6
f 289/1/6 284/1/6 290/1/6
f 286/2/6 287/2/6 291/2/6
f 288/2/6 289/2/6 291/2/6
f 289/2/6 290/2/6 291/2/6
f 285/2/6 286/2/6 291/2/6
f 255/2/6 285/2/6 291/2/6
f 287/2/6 288/2/6 291/2/6
f 291/2/6 290/2/6 292/2/6
f 292/2/6 290/2/6 293/2/6
f 293/2/6 290/2/6 294/2/6
f 294/2/6 290/2/6 295/2/6
f 290/2/6 264/2/6 296/2/6
f 295/2/6 290/2/6 296/2/6
f 255/2/6 291/2/6 297/2/6
f 291/1/6 292/1/6 297/1/6
f 297/1/6 292/1/6 298/1/6
f 295/1/6 296/1/6 299/1/6
f 296/2/6 264/2/6 300/2/6
f 299/1/6 296/1/6 300/1/6
f 298/1/6 292/1/6 301/1/6
f 297/2/6 298/2/6 301/2/6
f 301/1/6 292/1/6 302/1/6
f 295/1/6 299/1/6 303/1/6
f 299/2/6 300/2/6 304/2/6
f 303/1/6 299/1/6 304/1/6
f 255/2/6 297/2/6 305/2/6
f 297/2/6 301/2/6 305/2/6
f 301/2/6 302/2/6 305/2/6
f 305/2/6 302/2/6 306/2/6
f 302/1/6 292/1/6 307/1/6
f 306/2/6 302/2/6 307/2/6
f 292/2/6 293/2/6 308/2/6
f 307/1/6 292/1/6 308/1/6
f 293/1/6 294/1/6 309/1/6
f 308/2/6 293/2/6 309/2/6
f 294/2/6 295/2/6 310/2/6
f 309/1/6 294/1/6 310/1/6
f 295/1/6 303/1/6 311/1/6
f 310/2/6 295/2/6 311/2/6
f 303/2/6 304/2/6 312/2/6
f 311/1/6 303/1/6 312/1/6
f 300/2/6 264/2/6 313/2/6
f 312/2/6 304/2/6 313/2/6
f 304/2/6 300/2/6 313/2/6
f 313/2/6 264/2/6 314/2/6
f 308/2/6 309/2/6 315/2/6
f 312/2/6 313/2/6 315/2/6
f 310/2/6 311/2/6 315/2/6
f 309/2/6 310/2/6 315/2/6
f 311/2/6 312/2/6 315/2/6
f 307/2/6 308/2/6 315/2/6
f 306/2/6 307/2/6 315/2/6
f 315/2/6 313/2/6 316/2/6
